<?xml version="1.0" encoding="UTF-8" standalone="no"?>
<svg
   xmlns:dc="http://purl.org/dc/elements/1.1/"
   xmlns:cc="http://creativecommons.org/ns#"
   xmlns:rdf="http://www.w3.org/1999/02/22-rdf-syntax-ns#"
   xmlns:svg="http://www.w3.org/2000/svg"
   xmlns="http://www.w3.org/2000/svg"
   xmlns:sodipodi="http://sodipodi.sourceforge.net/DTD/sodipodi-0.dtd"
   xmlns:inkscape="http://www.inkscape.org/namespaces/inkscape"
   width="930.42641px"
   height="640.00000px"
   zoomAndPan="magnify"
   contentStyleType="text/css"
   viewBox="-0.10000 -0.10000 4.65213 3.20000"
   preserveAspectRatio="xMidYMid meet"
   version="1.0"
   id="svg2997"
   inkscape:version="0.48.0 r9654"
   sodipodi:docname="xypronwhite.svg"
   inkscape:export-filename="C:\Users\ZFSDT\workspace\ui\trunk\src\main\resources\de\xypron\ui\components\icon.png"
   inkscape:export-xdpi="3.0999999"
   inkscape:export-ydpi="3.0999999">
  <metadata
     id="metadata3017">
    <rdf:RDF>
      <cc:Work
         rdf:about="">
        <dc:format>image/svg+xml</dc:format>
        <dc:type
           rdf:resource="http://purl.org/dc/dcmitype/StillImage" />
        <dc:title></dc:title>
      </cc:Work>
    </rdf:RDF>
  </metadata>
  <defs
     id="defs3015" />
  <sodipodi:namedview
     pagecolor="#ffffff"
     bordercolor="#666666"
     borderopacity="1"
     objecttolerance="10"
     gridtolerance="10"
     guidetolerance="10"
     inkscape:pageopacity="0"
     inkscape:pageshadow="2"
     inkscape:window-width="1440"
     inkscape:window-height="837"
     id="namedview3013"
     showgrid="false"
     inkscape:zoom="0.96093749"
     inkscape:cx="280.49776"
     inkscape:cy="320"
     inkscape:window-x="-4"
     inkscape:window-y="-4"
     inkscape:window-maximized="1"
     inkscape:current-layer="svg2997" />
  <rect
     x="-0.10000098"
     y="-0.826065"
     width="4.6521301"
     height="4.6521301"
     style="fill:none;fill-opacity:1;stroke:none"
     id="rect2999" />
  <path
     style="fill:#0066ff;stroke:none; fill-opacity:1;"
     d=" M 0 0  L 0.00800 0.00012  L 0.01600 0.00049  L 0.02400 0.00111  L 0.03200 0.00197  L 0.04000 0.00308  L 0.04800 0.00444  L 0.05600 0.00604  L 0.06400 0.00789  L 0.07200 0.00998  L 0.08000 0.01231  L 0.08800 0.01489  L 0.09600 0.01771  L 0.10400 0.02078  L 0.11200 0.02408  L 0.12000 0.02763  L 0.12800 0.03142  L 0.13600 0.03544  L 0.14400 0.03971  L 0.15200 0.04421  L 0.16000 0.04894  L 0.16800 0.05391  L 0.17600 0.05912  L 0.18400 0.06456  L 0.19200 0.07022  L 0.20000 0.07612  L 0.20800 0.08225  L 0.21600 0.08860  L 0.22400 0.09517  L 0.23200 0.10197  L 0.24000 0.10899  L 0.24800 0.11623  L 0.25600 0.12369  L 0.26400 0.13137  L 0.27200 0.13926  L 0.28000 0.14736  L 0.28800 0.15567  L 0.29600 0.16419  L 0.30400 0.17292  L 0.31200 0.18185  L 0.32000 0.19098  L 0.32800 0.20032  L 0.33600 0.20984  L 0.34400 0.21957  L 0.35200 0.22949  L 0.36000 0.23959  L 0.36800 0.24989  L 0.37600 0.26037  L 0.38400 0.27103  L 0.39200 0.28187  L 0.40000 0.29289  L 0.40800 0.30409  L 0.41600 0.31545  L 0.42400 0.32699  L 0.43200 0.33869  L 0.44000 0.35055  L 0.44800 0.36258  L 0.45600 0.37476  L 0.46400 0.38709  L 0.47200 0.39958  L 0.48000 0.41221  L 0.48800 0.42499  L 0.49600 0.43792  L 0.50400 0.45098  L 0.51200 0.46417  L 0.52000 0.47750  L 0.52800 0.49096  L 0.53600 0.50454  L 0.54400 0.51825  L 0.55200 0.53207  L 0.56000 0.54601  L 0.56800 0.56006  L 0.57600 0.57422  L 0.58400 0.58849  L 0.59200 0.60285  L 0.60000 0.61732  L 0.60800 0.63188  L 0.61600 0.64653  L 0.62400 0.66126  L 0.63200 0.67608  L 0.64000 0.69098  L 0.64800 0.70596  L 0.65600 0.72101  L 0.66400 0.73613  L 0.67200 0.75131  L 0.68000 0.76655  L 0.68800 0.78186  L 0.69600 0.79721  L 0.70400 0.81262  L 0.71200 0.82807  L 0.72000 0.84357  L 0.72800 0.85910  L 0.73600 0.87467  L 0.74400 0.89027  L 0.75200 0.90589  L 0.76000 0.92154  L 0.76800 0.93721  L 0.77600 0.95289  L 0.78400 0.96859  L 0.79200 0.98429  L 0.80000 1.00000  L 0.79200 1.01571  L 0.78400 1.03141  L 0.77600 1.04711  L 0.76800 1.06279  L 0.76000 1.07846  L 0.75200 1.09411  L 0.74400 1.10973  L 0.73600 1.12533  L 0.72800 1.14090  L 0.72000 1.15643  L 0.71200 1.17193  L 0.70400 1.18738  L 0.69600 1.20279  L 0.68800 1.21814  L 0.68000 1.23345  L 0.67200 1.24869  L 0.66400 1.26387  L 0.65600 1.27899  L 0.64800 1.29404  L 0.64000 1.30902  L 0.63200 1.32392  L 0.62400 1.33874  L 0.61600 1.35347  L 0.60800 1.36812  L 0.60000 1.38268  L 0.59200 1.39715  L 0.58400 1.41151  L 0.57600 1.42578  L 0.56800 1.43994  L 0.56000 1.45399  L 0.55200 1.46793  L 0.54400 1.48175  L 0.53600 1.49546  L 0.52800 1.50904  L 0.52000 1.52250  L 0.51200 1.53583  L 0.50400 1.54902  L 0.49600 1.56208  L 0.48800 1.57501  L 0.48000 1.58779  L 0.47200 1.60042  L 0.46400 1.61291  L 0.45600 1.62524  L 0.44800 1.63742  L 0.44000 1.64945  L 0.43200 1.66131  L 0.42400 1.67301  L 0.41600 1.68455  L 0.40800 1.69591  L 0.40000 1.70711  L 0.39200 1.71813  L 0.38400 1.72897  L 0.37600 1.73963  L 0.36800 1.75011  L 0.36000 1.76041  L 0.35200 1.77051  L 0.34400 1.78043  L 0.33600 1.79016  L 0.32800 1.79968  L 0.32000 1.80902  L 0.31200 1.81815  L 0.30400 1.82708  L 0.29600 1.83581  L 0.28800 1.84433  L 0.28000 1.85264  L 0.27200 1.86074  L 0.26400 1.86863  L 0.25600 1.87631  L 0.24800 1.88377  L 0.24000 1.89101  L 0.23200 1.89803  L 0.22400 1.90483  L 0.21600 1.91140  L 0.20800 1.91775  L 0.20000 1.92388  L 0.19200 1.92978  L 0.18400 1.93544  L 0.17600 1.94088  L 0.16800 1.94609  L 0.16000 1.95106  L 0.15200 1.95579  L 0.14400 1.96029  L 0.13600 1.96456  L 0.12800 1.96858  L 0.12000 1.97237  L 0.11200 1.97592  L 0.10400 1.97922  L 0.09600 1.98229  L 0.08800 1.98511  L 0.08000 1.98769  L 0.07200 1.99002  L 0.06400 1.99211  L 0.05600 1.99396  L 0.04800 1.99556  L 0.04000 1.99692  L 0.03200 1.99803  L 0.02400 1.99889  L 0.01600 1.99951  L 0.00800 1.99988  L 0.00000 2.00000  L 0.30000 2.00000  L 0.30650 1.99992  L 0.31300 1.99967  L 0.31950 1.99927  L 0.32600 1.99870  L 0.33250 1.99796  L 0.33900 1.99707  L 0.34550 1.99601  L 0.35200 1.99479  L 0.35850 1.99341  L 0.36500 1.99187  L 0.37150 1.99016  L 0.37800 1.98830  L 0.38450 1.98627  L 0.39100 1.98408  L 0.39750 1.98173  L 0.40400 1.97922  L 0.41050 1.97656  L 0.41700 1.97373  L 0.42350 1.97074  L 0.43000 1.96760  L 0.43650 1.96430  L 0.44300 1.96084  L 0.44950 1.95722  L 0.45600 1.95345  L 0.46250 1.94953  L 0.46900 1.94545  L 0.47550 1.94121  L 0.48200 1.93682  L 0.48850 1.93228  L 0.49500 1.92759  L 0.50150 1.92275  L 0.50800 1.91775  L 0.51450 1.91261  L 0.52100 1.90732  L 0.52750 1.90188  L 0.53400 1.89629  L 0.54050 1.89056  L 0.54700 1.88468  L 0.55350 1.87866  L 0.56000 1.87250  L 0.56650 1.86619  L 0.57300 1.85974  L 0.57950 1.85315  L 0.58600 1.84643  L 0.59250 1.83956  L 0.59900 1.83256  L 0.60550 1.82542  L 0.61200 1.81815  L 0.61850 1.81074  L 0.62500 1.80321  L 0.63150 1.79554  L 0.63800 1.78774  L 0.64450 1.77982  L 0.65100 1.77176  L 0.65750 1.76358  L 0.66400 1.75528  L 0.67050 1.74686  L 0.67700 1.73831  L 0.68350 1.72964  L 0.69000 1.72085  L 0.69650 1.71195  L 0.70300 1.70293  L 0.70950 1.69379  L 0.71600 1.68455  L 0.72250 1.67519  L 0.72900 1.66572  L 0.73550 1.65614  L 0.74200 1.64646  L 0.74850 1.63667  L 0.75500 1.62677  L 0.76150 1.61678  L 0.76800 1.60668  L 0.77450 1.59649  L 0.78100 1.58620  L 0.78750 1.57581  L 0.79400 1.56533  L 0.80050 1.55475  L 0.80700 1.54409  L 0.81350 1.53334  L 0.82000 1.52250  L 0.82650 1.51157  L 0.83300 1.50057  L 0.83950 1.48948  L 0.84600 1.47831  L 0.85250 1.46706  L 0.85900 1.45574  L 0.86550 1.44434  L 0.87200 1.43287  L 0.87850 1.42133  L 0.88500 1.40972  L 0.89150 1.39805  L 0.89800 1.38631  L 0.90450 1.37451  L 0.91100 1.36264  L 0.91750 1.35072  L 0.92400 1.33874  L 0.93050 1.32670  L 0.93700 1.31461  L 0.94350 1.30247  L 0.95000 1.29028  L 0.95650 1.30247  L 0.96300 1.31461  L 0.96950 1.32670  L 0.97600 1.33874  L 0.98250 1.35072  L 0.98900 1.36264  L 0.99550 1.37451  L 1.00200 1.38631  L 1.00850 1.39805  L 1.01500 1.40972  L 1.02150 1.42133  L 1.02800 1.43287  L 1.03450 1.44434  L 1.04100 1.45574  L 1.04750 1.46706  L 1.05400 1.47831  L 1.06050 1.48948  L 1.06700 1.50057  L 1.07350 1.51157  L 1.08000 1.52250  L 1.08650 1.53334  L 1.09300 1.54409  L 1.09950 1.55475  L 1.10600 1.56533  L 1.11250 1.57581  L 1.11900 1.58620  L 1.12550 1.59649  L 1.13200 1.60668  L 1.13850 1.61678  L 1.14500 1.62677  L 1.15150 1.63667  L 1.15800 1.64646  L 1.16450 1.65614  L 1.17100 1.66572  L 1.17750 1.67519  L 1.18400 1.68455  L 1.19050 1.69379  L 1.19700 1.70293  L 1.20350 1.71195  L 1.21000 1.72085  L 1.21650 1.72964  L 1.22300 1.73831  L 1.22950 1.74686  L 1.23600 1.75528  L 1.24250 1.76358  L 1.24900 1.77176  L 1.25550 1.77982  L 1.26200 1.78774  L 1.26850 1.79554  L 1.27500 1.80321  L 1.28150 1.81074  L 1.28800 1.81815  L 1.29450 1.82542  L 1.30100 1.83256  L 1.30750 1.83956  L 1.31400 1.84643  L 1.32050 1.85315  L 1.32700 1.85974  L 1.33350 1.86619  L 1.34000 1.87250  L 1.34650 1.87866  L 1.35300 1.88468  L 1.35950 1.89056  L 1.36600 1.89629  L 1.37250 1.90188  L 1.37900 1.90732  L 1.38550 1.91261  L 1.39200 1.91775  L 1.39850 1.92275  L 1.40500 1.92759  L 1.41150 1.93228  L 1.41800 1.93682  L 1.42450 1.94121  L 1.43100 1.94545  L 1.43750 1.94953  L 1.44400 1.95345  L 1.45050 1.95722  L 1.45700 1.96084  L 1.46350 1.96430  L 1.47000 1.96760  L 1.47650 1.97074  L 1.48300 1.97373  L 1.48950 1.97656  L 1.49600 1.97922  L 1.50250 1.98173  L 1.50900 1.98408  L 1.51550 1.98627  L 1.52200 1.98830  L 1.52850 1.99016  L 1.53500 1.99187  L 1.54150 1.99341  L 1.54800 1.99479  L 1.55450 1.99601  L 1.56100 1.99707  L 1.56750 1.99796  L 1.57400 1.99870  L 1.58050 1.99927  L 1.58700 1.99967  L 1.59350 1.99992  L 1.60000 2.00000  L 1.90000 2.00000  L 1.89200 1.99988  L 1.88400 1.99951  L 1.87600 1.99889  L 1.86800 1.99803  L 1.86000 1.99692  L 1.85200 1.99556  L 1.84400 1.99396  L 1.83600 1.99211  L 1.82800 1.99002  L 1.82000 1.98769  L 1.81200 1.98511  L 1.80400 1.98229  L 1.79600 1.97922  L 1.78800 1.97592  L 1.78000 1.97237  L 1.77200 1.96858  L 1.76400 1.96456  L 1.75600 1.96029  L 1.74800 1.95579  L 1.74000 1.95106  L 1.73200 1.94609  L 1.72400 1.94088  L 1.71600 1.93544  L 1.70800 1.92978  L 1.70000 1.92388  L 1.69200 1.91775  L 1.68400 1.91140  L 1.67600 1.90483  L 1.66800 1.89803  L 1.66000 1.89101  L 1.65200 1.88377  L 1.64400 1.87631  L 1.63600 1.86863  L 1.62800 1.86074  L 1.62000 1.85264  L 1.61200 1.84433  L 1.60400 1.83581  L 1.59600 1.82708  L 1.58800 1.81815  L 1.58000 1.80902  L 1.57200 1.79968  L 1.56400 1.79016  L 1.55600 1.78043  L 1.54800 1.77051  L 1.54000 1.76041  L 1.53200 1.75011  L 1.52400 1.73963  L 1.51600 1.72897  L 1.50800 1.71813  L 1.50000 1.70711  L 1.49200 1.69591  L 1.48400 1.68455  L 1.47600 1.67301  L 1.46800 1.66131  L 1.46000 1.64945  L 1.45200 1.63742  L 1.44400 1.62524  L 1.43600 1.61291  L 1.42800 1.60042  L 1.42000 1.58779  L 1.41200 1.57501  L 1.40400 1.56208  L 1.39600 1.54902  L 1.38800 1.53583  L 1.38000 1.52250  L 1.37200 1.50904  L 1.36400 1.49546  L 1.35600 1.48175  L 1.34800 1.46793  L 1.34000 1.45399  L 1.33200 1.43994  L 1.32400 1.42578  L 1.31600 1.41151  L 1.30800 1.39715  L 1.30000 1.38268  L 1.29200 1.36812  L 1.28400 1.35347  L 1.27600 1.33874  L 1.26800 1.32392  L 1.26000 1.30902  L 1.25200 1.29404  L 1.24400 1.27899  L 1.23600 1.26387  L 1.22800 1.24869  L 1.22000 1.23345  L 1.21200 1.21814  L 1.20400 1.20279  L 1.19600 1.18738  L 1.18800 1.17193  L 1.18000 1.15643  L 1.17200 1.14090  L 1.16400 1.12533  L 1.15600 1.10973  L 1.14800 1.09411  L 1.14000 1.07846  L 1.13200 1.06279  L 1.12400 1.04711  L 1.11600 1.03141  L 1.10800 1.01571  L 1.10000 1.00000  L 1.10800 0.98429  L 1.11600 0.96859  L 1.12400 0.95289  L 1.13200 0.93721  L 1.14000 0.92154  L 1.14800 0.90589  L 1.15600 0.89027  L 1.16400 0.87467  L 1.17200 0.85910  L 1.18000 0.84357  L 1.18800 0.82807  L 1.19600 0.81262  L 1.20400 0.79721  L 1.21200 0.78186  L 1.22000 0.76655  L 1.22800 0.75131  L 1.23600 0.73613  L 1.24400 0.72101  L 1.25200 0.70596  L 1.26000 0.69098  L 1.26800 0.67608  L 1.27600 0.66126  L 1.28400 0.64653  L 1.29200 0.63188  L 1.30000 0.61732  L 1.30800 0.60285  L 1.31600 0.58849  L 1.32400 0.57422  L 1.33200 0.56006  L 1.34000 0.54601  L 1.34800 0.53207  L 1.35600 0.51825  L 1.36400 0.50454  L 1.37200 0.49096  L 1.38000 0.47750  L 1.38800 0.46417  L 1.39600 0.45098  L 1.40400 0.43792  L 1.41200 0.42499  L 1.42000 0.41221  L 1.42800 0.39958  L 1.43600 0.38709  L 1.44400 0.37476  L 1.45200 0.36258  L 1.46000 0.35055  L 1.46800 0.33869  L 1.47600 0.32699  L 1.48400 0.31545  L 1.49200 0.30409  L 1.50000 0.29289  L 1.50800 0.28187  L 1.51600 0.27103  L 1.52400 0.26037  L 1.53200 0.24989  L 1.54000 0.23959  L 1.54800 0.22949  L 1.55600 0.21957  L 1.56400 0.20984  L 1.57200 0.20032  L 1.58000 0.19098  L 1.58800 0.18185  L 1.59600 0.17292  L 1.60400 0.16419  L 1.61200 0.15567  L 1.62000 0.14736  L 1.62800 0.13926  L 1.63600 0.13137  L 1.64400 0.12369  L 1.65200 0.11623  L 1.66000 0.10899  L 1.66800 0.10197  L 1.67600 0.09517  L 1.68400 0.08860  L 1.69200 0.08225  L 1.70000 0.07612  L 1.70800 0.07022  L 1.71600 0.06456  L 1.72400 0.05912  L 1.73200 0.05391  L 1.74000 0.04894  L 1.74800 0.04421  L 1.75600 0.03971  L 1.76400 0.03544  L 1.77200 0.03142  L 1.78000 0.02763  L 1.78800 0.02408  L 1.79600 0.02078  L 1.80400 0.01771  L 1.81200 0.01489  L 1.82000 0.01231  L 1.82800 0.00998  L 1.83600 0.00789  L 1.84400 0.00604  L 1.85200 0.00444  L 1.86000 0.00308  L 1.86800 0.00197  L 1.87600 0.00111  L 1.88400 0.00049  L 1.89200 0.00012  L 1.90000 0.00000  L 1.60000 0.00000  L 1.59350 0.00008  L 1.58700 0.00033  L 1.58050 0.00073  L 1.57400 0.00130  L 1.56750 0.00204  L 1.56100 0.00293  L 1.55450 0.00399  L 1.54800 0.00521  L 1.54150 0.00659  L 1.53500 0.00813  L 1.52850 0.00984  L 1.52200 0.01170  L 1.51550 0.01373  L 1.50900 0.01592  L 1.50250 0.01827  L 1.49600 0.02078  L 1.48950 0.02344  L 1.48300 0.02627  L 1.47650 0.02926  L 1.47000 0.03240  L 1.46350 0.03570  L 1.45700 0.03916  L 1.45050 0.04278  L 1.44400 0.04655  L 1.43750 0.05047  L 1.43100 0.05455  L 1.42450 0.05879  L 1.41800 0.06318  L 1.41150 0.06772  L 1.40500 0.07241  L 1.39850 0.07725  L 1.39200 0.08225  L 1.38550 0.08739  L 1.37900 0.09268  L 1.37250 0.09812  L 1.36600 0.10371  L 1.35950 0.10944  L 1.35300 0.11532  L 1.34650 0.12134  L 1.34000 0.12750  L 1.33350 0.13381  L 1.32700 0.14026  L 1.32050 0.14685  L 1.31400 0.15357  L 1.30750 0.16044  L 1.30100 0.16744  L 1.29450 0.17458  L 1.28800 0.18185  L 1.28150 0.18926  L 1.27500 0.19679  L 1.26850 0.20446  L 1.26200 0.21226  L 1.25550 0.22018  L 1.24900 0.22824  L 1.24250 0.23642  L 1.23600 0.24472  L 1.22950 0.25314  L 1.22300 0.26169  L 1.21650 0.27036  L 1.21000 0.27915  L 1.20350 0.28805  L 1.19700 0.29707  L 1.19050 0.30621  L 1.18400 0.31545  L 1.17750 0.32481  L 1.17100 0.33428  L 1.16450 0.34386  L 1.15800 0.35354  L 1.15150 0.36333  L 1.14500 0.37323  L 1.13850 0.38322  L 1.13200 0.39332  L 1.12550 0.40351  L 1.11900 0.41380  L 1.11250 0.42419  L 1.10600 0.43467  L 1.09950 0.44525  L 1.09300 0.45591  L 1.08650 0.46666  L 1.08000 0.47750  L 1.07350 0.48843  L 1.06700 0.49943  L 1.06050 0.51052  L 1.05400 0.52169  L 1.04750 0.53294  L 1.04100 0.54426  L 1.03450 0.55566  L 1.02800 0.56713  L 1.02150 0.57867  L 1.01500 0.59028  L 1.00850 0.60195  L 1.00200 0.61369  L 0.99550 0.62549  L 0.98900 0.63736  L 0.98250 0.64928  L 0.97600 0.66126  L 0.96950 0.67330  L 0.96300 0.68539  L 0.95650 0.69753  L 0.95000 0.70972  L 0.94350 0.69753  L 0.93700 0.68539  L 0.93050 0.67330  L 0.92400 0.66126  L 0.91750 0.64928  L 0.91100 0.63736  L 0.90450 0.62549  L 0.89800 0.61369  L 0.89150 0.60195  L 0.88500 0.59028  L 0.87850 0.57867  L 0.87200 0.56713  L 0.86550 0.55566  L 0.85900 0.54426  L 0.85250 0.53294  L 0.84600 0.52169  L 0.83950 0.51052  L 0.83300 0.49943  L 0.82650 0.48843  L 0.82000 0.47750  L 0.81350 0.46666  L 0.80700 0.45591  L 0.80050 0.44525  L 0.79400 0.43467  L 0.78750 0.42419  L 0.78100 0.41380  L 0.77450 0.40351  L 0.76800 0.39332  L 0.76150 0.38322  L 0.75500 0.37323  L 0.74850 0.36333  L 0.74200 0.35354  L 0.73550 0.34386  L 0.72900 0.33428  L 0.72250 0.32481  L 0.71600 0.31545  L 0.70950 0.30621  L 0.70300 0.29707  L 0.69650 0.28805  L 0.69000 0.27915  L 0.68350 0.27036  L 0.67700 0.26169  L 0.67050 0.25314  L 0.66400 0.24472  L 0.65750 0.23642  L 0.65100 0.22824  L 0.64450 0.22018  L 0.63800 0.21226  L 0.63150 0.20446  L 0.62500 0.19679  L 0.61850 0.18926  L 0.61200 0.18185  L 0.60550 0.17458  L 0.59900 0.16744  L 0.59250 0.16044  L 0.58600 0.15357  L 0.57950 0.14685  L 0.57300 0.14026  L 0.56650 0.13381  L 0.56000 0.12750  L 0.55350 0.12134  L 0.54700 0.11532  L 0.54050 0.10944  L 0.53400 0.10371  L 0.52750 0.09812  L 0.52100 0.09268  L 0.51450 0.08739  L 0.50800 0.08225  L 0.50150 0.07725  L 0.49500 0.07241  L 0.48850 0.06772  L 0.48200 0.06318  L 0.47550 0.05879  L 0.46900 0.05455  L 0.46250 0.05047  L 0.45600 0.04655  L 0.44950 0.04278  L 0.44300 0.03916  L 0.43650 0.03570  L 0.43000 0.03240  L 0.42350 0.02926  L 0.41700 0.02627  L 0.41050 0.02344  L 0.40400 0.02078  L 0.39750 0.01827  L 0.39100 0.01592  L 0.38450 0.01373  L 0.37800 0.01170  L 0.37150 0.00984  L 0.36500 0.00813  L 0.35850 0.00659  L 0.35200 0.00521  L 0.34550 0.00399  L 0.33900 0.00293  L 0.33250 0.00204  L 0.32600 0.00130  L 0.31950 0.00073  L 0.31300 0.00033  L 0.30650 0.00008  L 0.30000 0.00000  z"
     id="path3001" />
  <path
     style="fill:#0066ff;stroke:none; fill-opacity:1;"
     d=" M 1.60000 1.00000  L 1.60800 1.01571  L 1.61600 1.03141  L 1.62400 1.04711  L 1.63200 1.06279  L 1.64000 1.07846  L 1.64800 1.09411  L 1.65600 1.10973  L 1.66400 1.12533  L 1.67200 1.14090  L 1.68000 1.15643  L 1.68800 1.17193  L 1.69600 1.18738  L 1.70400 1.20279  L 1.71200 1.21814  L 1.72000 1.23345  L 1.72800 1.24869  L 1.73600 1.26387  L 1.74400 1.27899  L 1.75200 1.29404  L 1.76000 1.30902  L 1.76800 1.32392  L 1.77600 1.33874  L 1.78400 1.35347  L 1.79200 1.36812  L 1.80000 1.38268  L 1.80800 1.39715  L 1.81600 1.41151  L 1.82400 1.42578  L 1.83200 1.43994  L 1.84000 1.45399  L 1.84800 1.46793  L 1.85600 1.48175  L 1.86400 1.49546  L 1.87200 1.50904  L 1.88000 1.52250  L 1.88800 1.53583  L 1.89600 1.54902  L 1.90400 1.56208  L 1.91200 1.57501  L 1.92000 1.58779  L 1.92800 1.60042  L 1.93600 1.61291  L 1.94400 1.62524  L 1.95200 1.63742  L 1.96000 1.64945  L 1.96800 1.66131  L 1.97600 1.67301  L 1.98400 1.68455  L 1.99200 1.69591  L 2.00000 1.70711  L 2.00800 1.71813  L 2.01600 1.72897  L 2.02400 1.73963  L 2.03200 1.75011  L 2.04000 1.76041  L 2.04800 1.77051  L 2.05600 1.78043  L 2.06400 1.79016  L 2.07200 1.79968  L 2.08000 1.80902  L 2.08800 1.81815  L 2.09600 1.82708  L 2.10400 1.83581  L 2.11200 1.84433  L 2.12000 1.85264  L 2.12800 1.86074  L 2.13600 1.86863  L 2.14400 1.87631  L 2.15200 1.88377  L 2.16000 1.89101  L 2.16800 1.89803  L 2.17600 1.90483  L 2.18400 1.91140  L 2.19200 1.91775  L 2.20000 1.92388  L 2.20800 1.92978  L 2.21600 1.93544  L 2.22400 1.94088  L 2.23200 1.94609  L 2.24000 1.95106  L 2.24800 1.95579  L 2.25600 1.96029  L 2.26400 1.96456  L 2.27200 1.96858  L 2.28000 1.97237  L 2.28800 1.97592  L 2.29600 1.97922  L 2.30400 1.98229  L 2.31200 1.98511  L 2.32000 1.98769  L 2.32800 1.99002  L 2.33600 1.99211  L 2.34400 1.99396  L 2.35200 1.99556  L 2.36000 1.99692  L 2.36800 1.99803  L 2.37600 1.99889  L 2.38400 1.99951  L 2.39200 1.99988  L 2.40000 2.00000  L 2.39200 2.01571  L 2.38400 2.03141  L 2.37600 2.04711  L 2.36800 2.06279  L 2.36000 2.07846  L 2.35200 2.09411  L 2.34400 2.10973  L 2.33600 2.12533  L 2.32800 2.14090  L 2.32000 2.15643  L 2.31200 2.17193  L 2.30400 2.18738  L 2.29600 2.20279  L 2.28800 2.21814  L 2.28000 2.23345  L 2.27200 2.24869  L 2.26400 2.26387  L 2.25600 2.27899  L 2.24800 2.29404  L 2.24000 2.30902  L 2.23200 2.32392  L 2.22400 2.33874  L 2.21600 2.35347  L 2.20800 2.36812  L 2.20000 2.38268  L 2.19200 2.39715  L 2.18400 2.41151  L 2.17600 2.42578  L 2.16800 2.43994  L 2.16000 2.45399  L 2.15200 2.46793  L 2.14400 2.48175  L 2.13600 2.49546  L 2.12800 2.50904  L 2.12000 2.52250  L 2.11200 2.53583  L 2.10400 2.54902  L 2.09600 2.56208  L 2.08800 2.57501  L 2.08000 2.58779  L 2.07200 2.60042  L 2.06400 2.61291  L 2.05600 2.62524  L 2.04800 2.63742  L 2.04000 2.64945  L 2.03200 2.66131  L 2.02400 2.67301  L 2.01600 2.68455  L 2.00800 2.69591  L 2.00000 2.70711  L 1.99200 2.71813  L 1.98400 2.72897  L 1.97600 2.73963  L 1.96800 2.75011  L 1.96000 2.76041  L 1.95200 2.77051  L 1.94400 2.78043  L 1.93600 2.79016  L 1.92800 2.79968  L 1.92000 2.80902  L 1.91200 2.81815  L 1.90400 2.82708  L 1.89600 2.83581  L 1.88800 2.84433  L 1.88000 2.85264  L 1.87200 2.86074  L 1.86400 2.86863  L 1.85600 2.87631  L 1.84800 2.88377  L 1.84000 2.89101  L 1.83200 2.89803  L 1.82400 2.90483  L 1.81600 2.91140  L 1.80800 2.91775  L 1.80000 2.92388  L 1.79200 2.92978  L 1.78400 2.93544  L 1.77600 2.94088  L 1.76800 2.94609  L 1.76000 2.95106  L 1.75200 2.95579  L 1.74400 2.96029  L 1.73600 2.96456  L 1.72800 2.96858  L 1.72000 2.97237  L 1.71200 2.97592  L 1.70400 2.97922  L 1.69600 2.98229  L 1.68800 2.98511  L 1.68000 2.98769  L 1.67200 2.99002  L 1.66400 2.99211  L 1.65600 2.99396  L 1.64800 2.99556  L 1.64000 2.99692  L 1.63200 2.99803  L 1.62400 2.99889  L 1.61600 2.99951  L 1.60800 2.99988  L 1.60000 3.00000  L 1.90000 3.00000  L 1.90800 2.99988  L 1.91600 2.99951  L 1.92400 2.99889  L 1.93200 2.99803  L 1.94000 2.99692  L 1.94800 2.99556  L 1.95600 2.99396  L 1.96400 2.99211  L 1.97200 2.99002  L 1.98000 2.98769  L 1.98800 2.98511  L 1.99600 2.98229  L 2.00400 2.97922  L 2.01200 2.97592  L 2.02000 2.97237  L 2.02800 2.96858  L 2.03600 2.96456  L 2.04400 2.96029  L 2.05200 2.95579  L 2.06000 2.95106  L 2.06800 2.94609  L 2.07600 2.94088  L 2.08400 2.93544  L 2.09200 2.92978  L 2.10000 2.92388  L 2.10800 2.91775  L 2.11600 2.91140  L 2.12400 2.90483  L 2.13200 2.89803  L 2.14000 2.89101  L 2.14800 2.88377  L 2.15600 2.87631  L 2.16400 2.86863  L 2.17200 2.86074  L 2.18000 2.85264  L 2.18800 2.84433  L 2.19600 2.83581  L 2.20400 2.82708  L 2.21200 2.81815  L 2.22000 2.80902  L 2.22800 2.79968  L 2.23600 2.79016  L 2.24400 2.78043  L 2.25200 2.77051  L 2.26000 2.76041  L 2.26800 2.75011  L 2.27600 2.73963  L 2.28400 2.72897  L 2.29200 2.71813  L 2.30000 2.70711  L 2.30800 2.69591  L 2.31600 2.68455  L 2.32400 2.67301  L 2.33200 2.66131  L 2.34000 2.64945  L 2.34800 2.63742  L 2.35600 2.62524  L 2.36400 2.61291  L 2.37200 2.60042  L 2.38000 2.58779  L 2.38800 2.57501  L 2.39600 2.56208  L 2.40400 2.54902  L 2.41200 2.53583  L 2.42000 2.52250  L 2.42800 2.50904  L 2.43600 2.49546  L 2.44400 2.48175  L 2.45200 2.46793  L 2.46000 2.45399  L 2.46800 2.43994  L 2.47600 2.42578  L 2.48400 2.41151  L 2.49200 2.39715  L 2.50000 2.38268  L 2.50800 2.36812  L 2.51600 2.35347  L 2.52400 2.33874  L 2.53200 2.32392  L 2.54000 2.30902  L 2.54800 2.29404  L 2.55600 2.27899  L 2.56400 2.26387  L 2.57200 2.24869  L 2.58000 2.23345  L 2.58800 2.21814  L 2.59600 2.20279  L 2.60400 2.18738  L 2.61200 2.17193  L 2.62000 2.15643  L 2.62800 2.14090  L 2.63600 2.12533  L 2.64400 2.10973  L 2.65200 2.09411  L 2.66000 2.07846  L 2.66800 2.06279  L 2.67600 2.04711  L 2.68400 2.03141  L 2.69200 2.01571  L 2.70000 2.00000  L 2.70800 1.98429  L 2.71600 1.96859  L 2.72400 1.95289  L 2.73200 1.93721  L 2.74000 1.92154  L 2.74800 1.90589  L 2.75600 1.89027  L 2.76400 1.87467  L 2.77200 1.85910  L 2.78000 1.84357  L 2.78800 1.82807  L 2.79600 1.81262  L 2.80400 1.79721  L 2.81200 1.78186  L 2.82000 1.76655  L 2.82800 1.75131  L 2.83600 1.73613  L 2.84400 1.72101  L 2.85200 1.70596  L 2.86000 1.69098  L 2.86800 1.67608  L 2.87600 1.66126  L 2.88400 1.64653  L 2.89200 1.63188  L 2.90000 1.61732  L 2.90800 1.60285  L 2.91600 1.58849  L 2.92400 1.57422  L 2.93200 1.56006  L 2.94000 1.54601  L 2.94800 1.53207  L 2.95600 1.51825  L 2.96400 1.50454  L 2.97200 1.49096  L 2.98000 1.47750  L 2.98800 1.46417  L 2.99600 1.45098  L 3.00400 1.43792  L 3.01200 1.42499  L 3.02000 1.41221  L 3.02800 1.39958  L 3.03600 1.38709  L 3.04400 1.37476  L 3.05200 1.36258  L 3.06000 1.35055  L 3.06800 1.33869  L 3.07600 1.32699  L 3.08400 1.31545  L 3.09200 1.30409  L 3.10000 1.29289  L 3.10800 1.28187  L 3.11600 1.27103  L 3.12400 1.26037  L 3.13200 1.24989  L 3.14000 1.23959  L 3.14800 1.22949  L 3.15600 1.21957  L 3.16400 1.20984  L 3.17200 1.20032  L 3.18000 1.19098  L 3.18800 1.18185  L 3.19600 1.17292  L 3.20400 1.16419  L 3.21200 1.15567  L 3.22000 1.14736  L 3.22800 1.13926  L 3.23600 1.13137  L 3.24400 1.12369  L 3.25200 1.11623  L 3.26000 1.10899  L 3.26800 1.10197  L 3.27600 1.09517  L 3.28400 1.08860  L 3.29200 1.08225  L 3.30000 1.07612  L 3.30800 1.07022  L 3.31600 1.06456  L 3.32400 1.05912  L 3.33200 1.05391  L 3.34000 1.04894  L 3.34800 1.04421  L 3.35600 1.03971  L 3.36400 1.03544  L 3.37200 1.03142  L 3.38000 1.02763  L 3.38800 1.02408  L 3.39600 1.02078  L 3.40400 1.01771  L 3.41200 1.01489  L 3.42000 1.01231  L 3.42800 1.00998  L 3.43600 1.00789  L 3.44400 1.00604  L 3.45200 1.00444  L 3.46000 1.00308  L 3.46800 1.00197  L 3.47600 1.00111  L 3.48400 1.00049  L 3.49200 1.00012  L 3.50000 1.00000  L 3.20000 1.00000  L 3.19257 1.00011  L 3.18514 1.00043  L 3.17771 1.00096  L 3.17028 1.00170  L 3.16285 1.00266  L 3.15542 1.00383  L 3.14799 1.00521  L 3.14056 1.00680  L 3.13313 1.00861  L 3.12570 1.01062  L 3.11827 1.01285  L 3.11084 1.01528  L 3.10341 1.01793  L 3.09598 1.02079  L 3.08855 1.02385  L 3.08112 1.02712  L 3.07369 1.03060  L 3.06626 1.03428  L 3.05883 1.03817  L 3.05140 1.04227  L 3.04397 1.04656  L 3.03654 1.05106  L 3.02911 1.05577  L 3.02168 1.06067  L 3.01425 1.06578  L 3.00682 1.07108  L 2.99939 1.07658  L 2.99196 1.08228  L 2.98453 1.08817  L 2.97710 1.09426  L 2.96967 1.10053  L 2.96224 1.10701  L 2.95481 1.11367  L 2.94738 1.12052  L 2.93995 1.12755  L 2.93252 1.13477  L 2.92509 1.14218  L 2.91766 1.14977  L 2.91023 1.15754  L 2.90280 1.16549  L 2.89537 1.17362  L 2.88794 1.18192  L 2.88051 1.19040  L 2.87308 1.19904  L 2.86565 1.20786  L 2.85822 1.21685  L 2.85079 1.22601  L 2.84336 1.23533  L 2.83593 1.24481  L 2.82850 1.25445  L 2.82107 1.26425  L 2.81364 1.27421  L 2.80621 1.28432  L 2.79878 1.29459  L 2.79135 1.30501  L 2.78392 1.31557  L 2.77649 1.32628  L 2.76906 1.33713  L 2.76163 1.34812  L 2.75420 1.35925  L 2.74677 1.37052  L 2.73934 1.38193  L 2.73191 1.39346  L 2.72448 1.40512  L 2.71705 1.41691  L 2.70962 1.42883  L 2.70219 1.44086  L 2.69476 1.45301  L 2.68733 1.46529  L 2.67990 1.47767  L 2.67247 1.49017  L 2.66504 1.50277  L 2.65761 1.51548  L 2.65018 1.52829  L 2.64275 1.54121  L 2.63532 1.55422  L 2.62789 1.56732  L 2.62046 1.58052  L 2.61303 1.59381  L 2.60560 1.60718  L 2.59817 1.62064  L 2.59074 1.63418  L 2.58331 1.64779  L 2.57588 1.66149  L 2.56845 1.67525  L 2.56102 1.68908  L 2.55359 1.70298  L 2.54616 1.71694  L 2.53873 1.73096  L 2.53130 1.74504  L 2.52387 1.75917  L 2.51644 1.77336  L 2.50901 1.78759  L 2.50158 1.80187  L 2.49415 1.81619  L 2.48672 1.83055  L 2.47929 1.84494  L 2.47186 1.85937  L 2.46443 1.87383  L 2.45700 1.88832  L 2.45143 1.88324  L 2.44586 1.87806  L 2.44029 1.87277  L 2.43472 1.86738  L 2.42915 1.86189  L 2.42358 1.85629  L 2.41801 1.85059  L 2.41244 1.84479  L 2.40687 1.83889  L 2.40130 1.83288  L 2.39573 1.82678  L 2.39016 1.82058  L 2.38459 1.81428  L 2.37902 1.80788  L 2.37345 1.80139  L 2.36788 1.79480  L 2.36231 1.78812  L 2.35674 1.78134  L 2.35117 1.77446  L 2.34560 1.76750  L 2.34003 1.76044  L 2.33446 1.75330  L 2.32889 1.74606  L 2.32332 1.73873  L 2.31775 1.73132  L 2.31218 1.72381  L 2.30661 1.71622  L 2.30104 1.70855  L 2.29547 1.70079  L 2.28990 1.69294  L 2.28433 1.68502  L 2.27876 1.67701  L 2.27319 1.66892  L 2.26762 1.66075  L 2.26205 1.65250  L 2.25648 1.64418  L 2.25091 1.63577  L 2.24534 1.62729  L 2.23977 1.61874  L 2.23420 1.61011  L 2.22863 1.60141  L 2.22306 1.59263  L 2.21749 1.58379  L 2.21192 1.57488  L 2.20635 1.56589  L 2.20078 1.55684  L 2.19521 1.54772  L 2.18964 1.53854  L 2.18407 1.52929  L 2.17850 1.51998  L 2.17293 1.51061  L 2.16736 1.50118  L 2.16179 1.49168  L 2.15622 1.48213  L 2.15065 1.47252  L 2.14508 1.46285  L 2.13951 1.45313  L 2.13394 1.44336  L 2.12837 1.43353  L 2.12280 1.42365  L 2.11723 1.41371  L 2.11166 1.40373  L 2.10609 1.39370  L 2.10052 1.38363  L 2.09495 1.37350  L 2.08938 1.36334  L 2.08381 1.35313  L 2.07824 1.34287  L 2.07267 1.33258  L 2.06710 1.32224  L 2.06153 1.31187  L 2.05596 1.30146  L 2.05039 1.29102  L 2.04482 1.28054  L 2.03925 1.27002  L 2.03368 1.25948  L 2.02811 1.24890  L 2.02254 1.23829  L 2.01697 1.22766  L 2.01140 1.21699  L 2.00583 1.20630  L 2.00026 1.19559  L 1.99469 1.18485  L 1.98912 1.17409  L 1.98355 1.16331  L 1.97798 1.15252  L 1.97241 1.14170  L 1.96684 1.13086  L 1.96127 1.12001  L 1.95570 1.10915  L 1.95013 1.09827  L 1.94456 1.08738  L 1.93899 1.07648  L 1.93342 1.06557  L 1.92785 1.05466  L 1.92228 1.04373  L 1.91671 1.03280  L 1.91114 1.02187  L 1.90557 1.01094  L 1.90000 1.00000  z"
     id="path3003" />
  <path
     style="fill:#0066ff;stroke:none; fill-opacity:1;"
     d=" M1.90000,0.30000  L1.90000,0.87500  L2.02500 0.87500  L2.02500 0.54367  A0.30000,0.30000 0 1,0 1.90000,0.30000 Z  M2.02500,0.30000  a0.17500,0.17500 0 0,1 0.17500,-0.17500 a0.17500,0.17500 0 0,1 0.17500,0.17500 a0.17500,0.17500 0 0,1 -0.17500,0.17500 a0.17500,0.17500 0 0,1 -0.17500,-0.17500 Z"
     id="path3005" />
  <path
     style="fill:#0066ff;stroke:none; fill-opacity:1;"
     d=" M2.60000,0.30000  L2.60000,0.60000  L2.72500 0.60000  L2.72500 0.30000  A0.17500,0.17500 0 0,1 3.02374,0.17626 L3.11213,0.08787  A0.30000,0.30000 0 0,0 2.60000,0.30000 Z"
     id="path3007" />
  <path
     style="fill:#0066ff;stroke:none; fill-opacity:1;"
     d=" M3.15213,0.30000  A0.30000,0.30000 0 0,0 3.45213,0.60000 A0.30000,0.30000 0 0,0 3.75213,0.30000 A0.30000,0.30000 0 0,0 3.45213,0.00000 A0.30000,0.30000 0 0,0 3.15213,0.30000 Z  M3.27713,0.30000  A0.17500,0.17500 0 0,1 3.45213,0.12500 A0.17500,0.17500 0 0,1 3.62713,0.30000 A0.17500,0.17500 0 0,1 3.45213,0.47500 A0.17500,0.17500 0 0,1 3.27713,0.30000 Z"
     id="path3009" />
  <path
     style="fill:#0066ff;stroke:none; fill-opacity:1;"
     d=" M3.85213,0.30000  L3.85213,0.60000 L3.97713,0.60000 L3.97713,0.30000 A0.17500,0.17500 0 0,1 4.15213,0.12500 A0.17500,0.17500 0 0,1 4.32713,0.30000 L4.32713,0.60000 L4.45213,0.60000 L4.45213,0.30000 A0.30000,0.30000 0 0,0 4.15213,0.00000 A0.30000,0.30000 0 0,0 3.85213,0.30000 Z"
     id="path3011" />
</svg>
